<svg width="381" height="440" viewBox="0 0 381 440" fill="none" xmlns="http://www.w3.org/2000/svg">
<path d="M325.719 98.3451H64.0332V354.45H325.719V98.3451Z" fill="white"/>
<path d="M0.529907 330.667L0 107.967L190.165 0L380.652 107.801L380.449 330.804L190.204 439.956L0.529907 330.667ZM217.612 222.719C217.612 222.719 208.99 216.802 204.018 215.607C195.303 213.514 185.84 213.769 177.132 215.889C172.122 217.11 163.321 222.858 163.321 222.858L150.084 323.789L231.409 323.917L217.612 222.719ZM303.094 223.476C307.079 211.26 310.039 198.397 309.979 185.548C309.911 171.122 306.536 156.685 301.851 143.041C298.17 132.317 294.667 125.293 286.37 112.754L274.6 124.537C274.6 124.537 284.21 140.049 287.175 148.6C291.268 160.407 293.946 172.947 294.102 185.442C294.24 196.679 291.938 207.958 288.7 218.718C285.506 229.329 275.031 249.022 275.031 249.022L285.307 260.19C285.307 260.19 298.876 236.404 303.094 223.476ZM276.539 214.384C280.167 205.199 282.827 195.297 282.776 185.422C282.718 174.407 279.348 163.507 275.485 153.193C272.991 146.534 265.367 134.414 265.367 134.414L253.996 145.07C253.996 145.07 259.859 153.351 261.567 158.064C264.732 166.793 266.207 176.242 266.224 185.527C266.241 193.643 264.982 201.907 262.24 209.545C259.962 215.889 252.102 227.043 252.102 227.043L263.063 236.85C263.063 236.85 273.331 222.506 276.539 214.384ZM189.495 202.428C198.525 202.521 207.58 204.163 216.249 206.696C223.667 208.863 237.508 215.946 237.508 215.946L237.267 154.322C237.267 154.322 223.091 161.216 215.568 163.448C207.03 165.981 198.182 168.3 189.277 168.199C180.328 168.098 171.543 165.402 162.973 162.826C155.904 160.702 142.43 154.563 142.43 154.563L142.189 216.07C142.189 216.07 156.296 208.221 163.977 205.962C172.215 203.54 180.908 202.34 189.495 202.428ZM119.35 210.603C115.617 202.779 112.321 194.274 112.175 185.607C112.033 177.165 115.145 168.856 118.34 161.041C120.611 155.485 127.45 145.506 127.45 145.506L116.336 135.316C116.336 135.316 107.602 148.671 104.665 156.033C100.888 165.504 97.2351 175.506 97.2168 185.702C97.1979 196.33 100.099 207.156 104.869 216.653C108.43 223.743 115.176 229.084 119.992 235.032L129.723 225.421C129.723 225.421 121.946 216.045 119.35 210.603ZM93.359 220.475C89.2371 209.209 85.3371 197.425 85.1724 185.429C84.9992 172.811 88.5481 160.234 92.7681 148.341C95.7794 139.855 105.241 124.38 105.241 124.38L95.986 112.343C95.986 112.343 83.0536 132.971 78.7646 144.279C73.7885 157.398 69.4066 171.231 69.1475 185.259C68.8908 199.156 71.9473 213.297 77.1683 226.178C82.2725 238.772 99.3925 260.354 99.3925 260.354L107.883 248.929C107.883 248.929 97.0175 230.476 93.359 220.475Z" fill="white"/>
<path d="M224.635 230.438H156.422L187.716 282.482L190.632 287.332L224.635 230.438Z" fill="black" stroke="black" stroke-width="0.513792"/>
<path d="M296.48 167.401L328.51 260.568L284.914 202.736L254.155 216.463L296.48 167.401Z" fill="black" stroke="black" stroke-width="0.382733"/>
<path d="M229.37 252.56L242.334 237.054L278.686 223.072L279.194 325.772L256.824 251.543L229.37 252.56Z" fill="black" stroke="black" stroke-width="0.382733"/>
<path d="M86.8183 166.881L54.7881 260.047L98.3846 202.215L129.143 215.943L86.8183 166.881Z" fill="black" stroke="black" stroke-width="0.382733"/>
<path d="M153.928 252.04L140.964 236.533L104.612 222.552L104.104 325.251L126.474 251.023L153.928 252.04Z" fill="black" stroke="black" stroke-width="0.382733"/>
<path d="M229.8 222.049L150.532 222.23L114.043 165.934L159.817 155.929L191.335 113.62L223.887 155.404L267.008 166.658L229.8 222.049Z" fill="black" stroke="black" stroke-width="0.384074"/>
</svg>
